{
  "accessors": [
    {
      "bufferView": 1,
      "componentType": 5126,
      "count": 65533,
      "max": [
        15.002848625183105,
        135.97357177734375,
        16.08418846130371
      ],
      "min": [
        -37.749244689941406,
        15.415534973144531,
        -77.23041534423828
      ],
      "type": "VEC3"
    },
    {
      "bufferView": 1,
      "byteOffset": 786396,
      "componentType": 5126,
      "count": 65533,
      "max": [
        0.9999920129776001,
        1.0,
        0.9996088743209839
      ],
      "min": [
        -0.9998900890350342,
        -1.0,
        -0.9995007514953613
      ],
      "type": "VEC3"
    },
    {
      "bufferView": 0,
      "componentType": 5125,
      "count": 91287,
      "type": "SCALAR"
    },
    {
      "bufferView": 1,
      "byteOffset": 1572792,
      "componentType": 5126,
      "count": 13407,
      "max": [
        14.974291801452637,
        133.30616760253906,
        15.566329002380371
      ],
      "min": [
        -37.46221923828125,
        15.765000343322754,
        -63.52739715576172
      ],
      "type": "VEC3"
    },
    {
      "bufferView": 1,
      "byteOffset": 1733676,
      "componentType": 5126,
      "count": 13407,
      "max": [
        0.9997985363006592,
        0.8857795000076294,
        0.9952753782272339
      ],
      "min": [
        -0.9993950128555298,
        -0.9880200028419495,
        -0.9996907711029053
      ],
      "type": "VEC3"
    },
    {
      "bufferView": 0,
      "byteOffset": 365148,
      "componentType": 5125,
      "count": 17220,
      "type": "SCALAR"
    },
    {
      "bufferView": 1,
      "byteOffset": 1894560,
      "componentType": 5126,
      "count": 23478,
      "max": [
        19.94721794128418,
        18.204044342041016,
        0.4775868058204651
      ],
      "min": [
        -41.19774627685547,
        0.5,
        -25.166479110717773
      ],
      "type": "VEC3"
    },
    {
      "bufferView": 1,
      "byteOffset": 2176296,
      "componentType": 5126,
      "count": 23478,
      "max": [
        0.999830961227417,
        0.9999991655349731,
        0.999852180480957
      ],
      "min": [
        -0.9998935461044312,
        -1.0,
        -0.9989848732948303
      ],
      "type": "VEC3"
    },
    {
      "bufferView": 0,
      "byteOffset": 434028,
      "componentType": 5125,
      "count": 29103,
      "type": "SCALAR"
    },
    {
      "bufferView": 1,
      "byteOffset": 2458032,
      "componentType": 5126,
      "count": 2925,
      "max": [
        -1.9467958211898804,
        132.0084686279297,
        26.336528778076172
      ],
      "min": [
        -12.905768394470215,
        120.14217376708984,
        13.46501636505127
      ],
      "type": "VEC3"
    },
    {
      "bufferView": 1,
      "byteOffset": 2493132,
      "componentType": 5126,
      "count": 2925,
      "max": [
        0.999529242515564,
        0.9676586389541626,
        0.9971858263015747
      ],
      "min": [
        -0.9865574240684509,
        -0.9995054006576538,
        -0.9850577712059021
      ],
      "type": "VEC3"
    },
    {
      "bufferView": 0,
      "byteOffset": 550440,
      "componentType": 5125,
      "count": 4644,
      "type": "SCALAR"
    },
    {
      "bufferView": 1,
      "byteOffset": 2528232,
      "componentType": 5126,
      "count": 269,
      "max": [
        -4.550774097442627,
        134.49383544921875,
        10.736201286315918
      ],
      "min": [
        -14.775496482849121,
        130.00550842285156,
        7.147209167480469
      ],
      "type": "VEC3"
    },
    {
      "bufferView": 1,
      "byteOffset": 2531460,
      "componentType": 5126,
      "count": 269,
      "max": [
        0.8348504304885864,
        0.8714759945869446,
        0.4314888119697571
      ],
      "min": [
        -0.9632989764213562,
        -0.047091513872146606,
        -0.283399373292923
      ],
      "type": "VEC3"
    },
    {
      "bufferView": 0,
      "byteOffset": 569016,
      "componentType": 5125,
      "count": 285,
      "type": "SCALAR"
    }
  ],
  "asset": {
    "extras": {
      "author": "kidinventor7777 (https://sketchfab.com/kidinventor7777)",
      "license": "CC-BY-4.0 (http://creativecommons.org/licenses/by/4.0/)",
      "source": "https://sketchfab.com/3d-models/entitled-goose-untitled-goose-game-5d26d1d9c0d348df93318d186d019751",
      "title": "Entitled Goose -  Untitled Goose Game"
    },
    "generator": "Sketchfab-13.74.0",
    "version": "2.0"
  },
  "bufferViews": [
    {
      "buffer": 0,
      "byteLength": 570156,
      "name": "floatBufferViews",
      "target": 34963
    },
    {
      "buffer": 0,
      "byteLength": 2534688,
      "byteOffset": 570156,
      "byteStride": 12,
      "name": "floatBufferViews",
      "target": 34962
    }
  ],
  "buffers": [
    {
      "byteLength": 3104844,
      "uri": "scene.bin"
    }
  ],
  "materials": [
    {
      "doubleSided": true,
      "emissiveFactor": [
        1.0,
        1.0,
        1.0
      ],
      "name": "body"
    },
    {
      "doubleSided": true,
      "emissiveFactor": [
        0.896269,
        0.234551,
        0.0273209
      ],
      "name": "feet"
    },
    {
      "doubleSided": true,
      "emissiveFactor": [
        0.991102,
        0.266356,
        0.028426
      ],
      "name": "beak"
    },
    {
      "doubleSided": true,
      "name": "eyes"
    }
  ],
  "meshes": [
    {
      "name": "Object_0",
      "primitives": [
        {
          "attributes": {
            "NORMAL": 1,
            "POSITION": 0
          },
          "indices": 2,
          "material": 0,
          "mode": 4
        }
      ]
    },
    {
      "name": "Object_1",
      "primitives": [
        {
          "attributes": {
            "NORMAL": 4,
            "POSITION": 3
          },
          "indices": 5,
          "material": 0,
          "mode": 4
        }
      ]
    },
    {
      "name": "Object_2",
      "primitives": [
        {
          "attributes": {
            "NORMAL": 7,
            "POSITION": 6
          },
          "indices": 8,
          "material": 1,
          "mode": 4
        }
      ]
    },
    {
      "name": "Object_3",
      "primitives": [
        {
          "attributes": {
            "NORMAL": 10,
            "POSITION": 9
          },
          "indices": 11,
          "material": 2,
          "mode": 4
        }
      ]
    },
    {
      "name": "Object_4",
      "primitives": [
        {
          "attributes": {
            "NORMAL": 13,
            "POSITION": 12
          },
          "indices": 14,
          "material": 3,
          "mode": 4
        }
      ]
    }
  ],
  "nodes": [
    {
      "children": [
        1
      ],
      "matrix": [
        0.2911965548992157,
        0.0,
        0.0,
        0.0,
        0.0,
        6.465862398812654e-17,
        -0.2911965548992157,
        0.0,
        0.0,
        0.2911965548992157,
        6.465862398812654e-17,
        0.0,
        0.0,
        0.0,
        0.0,
        1.0
      ],
      "name": "Sketchfab_model"
    },
    {
      "children": [
        2
      ],
      "name": "root"
    },
    {
      "children": [
        3
      ],
      "matrix": [
        1.0,
        0.0,
        0.0,
        0.0,
        0.0,
        2.220446049250313e-16,
        1.0,
        0.0,
        0.0,
        -1.0,
        2.220446049250313e-16,
        0.0,
        0.0,
        0.0,
        0.0,
        1.0
      ],
      "name": "GLTF_SceneRootNode"
    },
    {
      "children": [
        4,
        5,
        6,
        7,
        8
      ],
      "matrix": [
        0.014539592899382114,
        0.0,
        0.0,
        0.0,
        0.0,
        0.014539592899382114,
        0.0,
        0.0,
        0.0,
        0.0,
        0.014539592899382114,
        0.0,
        0.0,
        0.0,
        0.0,
        1.0
      ],
      "name": "Single_4"
    },
    {
      "mesh": 0,
      "name": "Object_4"
    },
    {
      "mesh": 1,
      "name": "Object_5"
    },
    {
      "mesh": 2,
      "name": "Object_6"
    },
    {
      "mesh": 3,
      "name": "Object_7"
    },
    {
      "mesh": 4,
      "name": "Object_8"
    }
  ],
  "scene": 0,
  "scenes": [
    {
      "name": "Sketchfab_Scene",
      "nodes": [
        0
      ]
    }
  ]
}
